<?xml version="1.0" encoding="UTF-8"?><svg id="Capa_2" xmlns="http://www.w3.org/2000/svg" viewBox="0 0 794.51 856.84"><g id="Capa_1-2"><g><path d="M462.93,644.11c.83-1.83,1.18-4.45,2.6-5.31,1.83-1.1,4.93-1.72,6.73-.9,5.13,2.34,6.85,8.72,4.7,14.75-1.99,5.59-5.96,7.76-12.08,7.14-2.5-.25-5.09,.36-6.96,.52-.78-2.05-1.56-4.07-2.77-7.24-4.52,10.16-1.77,19.81,6.84,25.94,9.7,6.91,16.34,16.1,20.93,26.84,3.56,8.33,4.35,16.81-1.13,24.8-3.23,4.71-7.62,7.71-14.6,8.58,6.42-6.48,7.38-13.18,4.12-20.55-2.63-5.93-7.08-9.41-11.46-8.85-4.34,.55-8.67,5.13-9.46,11.02-.42,3.17,.02,6.61,.82,9.74,.9,3.53,3.1,5.75,7.07,2.61,.74,3.71,.06,6.59-3.45,7.57-3.79,1.06-6.57-1.06-8.1-4.31-3.63-7.7-3.75-15.77-1.79-23.93,.39-1.61,.73-3.34,1.57-4.72,5.2-8.53,3.7-16.02-2.89-23.14-3.85-4.16-4.87-9.32-3.82-14.93,1.07-5.68,.7-10.88-4.52-14.81-1.5-1.13-2.6-3.13-3.27-4.96-6.04-16.36-6.51-32.67,4.32-47.09,12.8-17.06,13.14-34.89,6.16-53.86-1.89-5.14-5.49-8.68-10.61-10.61-2.62-.99-5.84-2.68-7.48,.72-.83,1.72,.47,4.46,.82,6.8-5.88,.83-10.74-3.7-10.52-11.43,.1-3.59,1.03-7.27,2.23-10.68,1.61-4.59,1.07-8.6-2.15-12.07-4.76-5.11-6.94-11.05-7.54-18-.28-3.29-2.47-6.41-4.37-9.34,.45,21.47,.84,42.78,7.88,63.11,1.6,4.6,3.98,9.29,7.15,12.92,6.87,7.88,10.02,17.27,12.15,27.03,1.66,7.61-3.54,14.57-9.78,13.52-2.59-.44-5.76-2.93-6.85-5.32-1.12-2.47-.41-6.04,.33-8.92,.21-.81,3.3-.89,5.07-1.31,.24,1.66,.66,3.31,.67,4.97,.01,1.84-.34,3.69-.54,5.53,1.04,.11,2.66,.68,3.02,.23,1.25-1.56,3.22-3.79,2.84-5.19-1.2-4.42-2.67-9.08-5.3-12.73-3.81-5.3-9.42-3.98-11.71,2.05-4.13,10.88-3.12,21.25,2.98,31.11,2.1,3.4,4.2,6.84,6.69,9.94,5.38,6.71,7.28,14.33,5.45,22.53-2.57,11.47-.71,21.49,6.59,30.99,7.22,9.4,9.41,19.89,4.13,31.43-2.92,6.38-1.36,9.37,5.88,13.05-2.88,1.74-5.41,4.5-7.27,4.11-3.15-.66-5.87-3.32-9.61-5.67-3.71,3.8-7.81,9.09-9.69,15.67-.45,1.58,.86,4.26,2.21,5.53,.91,.86,3.31,.16,5.04,.16,.04-.44,.08-.89,.12-1.33-1.39-.39-2.78-.79-4.33-1.23,.58-3.8,2.13-6.4,6.2-5.44,3.74,.89,4.8,3.86,4.16,7.4-.92,5.13-6.75,9.44-11.74,8.81-5.08-.64-7.96-4.86-8.14-10.82-.28-8.9,3.1-16.09,8.86-22.64,2.93-3.33,5.61-7.08,7.46-11.08,2.15-4.64-.3-9.97-4.5-11.82-4.64-2.06-8.76,.3-8.93,6.67,1.88-1.34,3.77-2.68,5.79-4.11,4.44,2.7,4.74,9.73-.6,13.03-4.6,2.85-6.36,6.41-6.43,11.47-.02,1.62-.42,3.43-1.24,4.8-2.73,4.57-4.32,9.29-3.58,14.7,.13,.97-.69,2.07-1.31,3.78-1.13-1.69-1.89-2.83-2.99-4.48-.87,1.78-1.6,3.28-2.32,4.77-.41,.05-.82,.09-1.24,.14-.31-1.89-.56-3.8-.96-5.67-.67-3.18-1.36-6.36-2.21-9.49-.39-1.42-1.59-2.69-1.76-4.1-.77-6.58-1.99-12.6-8.63-16.31-1.56-.87-2.19-4.42-2.24-6.75-.09-4.52,1.68-5.36,5.97-3.68,.98,.38,2.18,.2,3.69,.3-1.82-4.08-4.67-5.24-8.29-4.47-4.13,.88-6.57,3.98-6.39,7.86,.15,3.29,1.55,6.76,3.23,9.66,1.9,3.27,4.71,6.02,7.18,8.95,4.64,5.5,6.51,11.92,6.36,18.99-.1,4.75-3.88,9.43-8.04,10.22-4.57,.87-9.15-1.49-11.11-5.72-1.87-4.02-.91-8.04,3.05-9.71,1.55-.65,3.95,.68,5.96,1.11-.78,1.51-1.51,3.05-2.39,4.5-.28,.46-1,.65-1.58,1,3.36,3.26,5.95,3.14,7.14-.58,.7-2.19,.9-5.21-.08-7.14-2.68-5.26-6.1-10.15-8.57-14.12-4.46,2.48-7.84,4.71-11.51,6.18-1.02,.41-2.94-1.41-4.44-2.2,.75-1.41,1.16-3.28,2.32-4.14,3.82-2.82,4.35-6.4,2.27-10.1-5.1-9.05-4.29-18.25,1.37-25.98,8.85-12.08,12.42-24.53,8.89-39.3-1.47-6.15,1.01-12.07,4.78-17.34,3.39-4.73,6.58-9.64,9.39-14.73,5.92-10.75,4.22-21.55-.58-32.18-1.7-3.78-4.57-3.31-7.5-1.71-4.4,2.4-9.07,13.16-7.55,17.99,.48,1.51,2.08,2.73,3.35,3.88,.16,.15,2.03-.88,2.08-1.44,.11-1.47-.51-2.99-.53-4.49-.02-1.42,.12-4,.57-4.08,1.71-.32,4.93-.26,5.13,.4,.86,2.85,1.96,6.48,.87,8.85-1.17,2.54-4.52,5.07-7.27,5.55-2.16,.38-6.37-1.87-7.04-3.84-1.53-4.52-3.12-10.16-1.69-14.31,2.66-7.71,7.42-14.7,11.37-21.96,2.21-4.05,5.34-7.78,6.68-12.08,4.7-15.15,7.98-30.59,7.86-46.61-.04-5.74,.76-11.5,1.17-17.24-.47-.2-.94-.4-1.41-.6-1.31,3.32-3.41,6.56-3.76,9.98-.68,6.75-2.73,12.55-7.45,17.51-3.44,3.61-3.3,7.82-2.16,12.59,1.16,4.87,1.84,10.17,1.16,15.06-.74,5.31-4.84,7.25-9.3,6.73,.22-2.47,.44-4.84,.65-7.2-2.46-.16-5.11-.99-7.33-.34-5.03,1.47-8.64,5.01-10.51,9.97-7.1,18.87-7.27,36.82,5.56,53.91,10.98,14.61,10.75,30.96,4.71,47.52-.77,2.11-2.18,4.33-3.93,5.69-4.15,3.22-5.02,7.47-4.13,12.05,1.41,7.25,.02,13.55-4.96,19.01-5.51,6.03-6,12.34-2.26,19.68,4.06,7.97,4.58,16.64,2.31,25.33-.54,2.06-1.12,4.62-2.59,5.8-2.09,1.68-5.18,3.34-7.57,3.01-1.7-.23-2.95-3.76-3.99-6.54,5.29,2.61,7.12-.52,8.25-4.01,1.99-6.13,1.05-11.9-3.4-16.76-4.04-4.42-8.8-4.43-13.09-.27-7.22,7.02-7.48,16.13-.73,25.91-8.62-.28-16.81-8-17.2-17.49-.21-5.15,.71-10.7,2.56-15.52,4.12-10.75,10.94-19.69,20.46-26.52,8.68-6.22,11.47-15.42,7.97-24.29-3.93,1.92-7.87,3.85-12.22,5.97,1.45,1.55,3.08,3.31,4.71,5.06-.24,.4-.49,.79-.73,1.19-1.56-.9-4.1-1.5-4.5-2.77-.94-3.01-2.88-4.23-5.37-5.74-6.71-4.06-7.14-14.76-1.37-19.85,3.31-2.92,6.21-1.92,8.86,.41,1.01,.89,1.02,2.91,1.49,4.41-1.25,.24-2.62,.23-3.72,.78-1.81,.91-3.43,2.17-5.14,3.29,1.52,1.41,3.51,4.29,4.48,3.98,3.64-1.16,7.79-2.61,10.21-5.32,5.46-6.11,5.48-13.72,3.02-21.21-1.35-4.12-5.02-5.07-8.92-4.94-10.17,.35-18.02,6.7-19.62,16.71-1.36,8.49-1.01,16.71,4.68,24.24,6.67,8.83,5.69,20.65-1.4,27.99-6.62,6.85-15.02,6.63-21.15-.51-.67-.78-1.63-1.32-2.64-2.12,0-1.07-.11-2.67,.02-4.26,.28-3.54,.06-7.3,1.2-10.56,1.4-4.03,5.69-5.42,9.03-3.57,3.87,2.14,4.71,5.31,2.51,9.26-.34-.25-.71-.37-.84-.62-1.15-2.23-1.5-5.86-5.27-4.37-3.65,1.45-3.07,4.83-2.1,7.75,1.52,4.56,5.72,6.43,11.5,5.42,5.17-.91,7.02-3.13,7.09-8.54,.11-8.38-3.17-14.67-8.66-16.58-6.13-2.14-13.52,.5-18.19,7.32-5.87,8.57-9.13,17.86-7.62,28.71,.62,4.51-1.41,9.33-1.81,14.05-.36,4.33-.89,8.87,.04,13.01,.83,3.67,4.28,5.97,8.51,5.49,4.35-.49,5.45-3.68,5.4-7.6,.54-.03,1.07-.06,1.61-.1,.13,2.45,1.16,5.39,.16,7.23-1.24,2.28-3.97,4.75-6.4,5.19-7.58,1.35-15.61-5.84-16.06-13.65-.09-1.48-.01-2.96-.01-5.36-5.19,3.05-10.1,3.1-13.16-1.94-1.37-2.26-1.6-5.71-1.09-8.39,.25-1.34,3.31-2.14,5.36-3.34,.25,2.9,.11,4.77,.72,6.37,.19,.51,3.02,.83,3.48,.27,1.27-1.53,2.59-3.53,2.7-5.41,.33-5.43-4.61-10.38-10.82-11.1-6.73-.78-12.17,1.92-15.97,7.35-3.7,5.3-4.3,11.22-1.05,16.98,1.06,1.89,3.24,3.15,4.02,3.87,1.73-2.7,2.72-6.02,4.27-6.3,3.64-.66,5.36,2.69,5.37,5.74,0,2.58-.76,6.11-2.53,7.49-1.7,1.32-5.51,1.29-7.73,.33-8.65-3.74-13.46-11.01-15.8-18.89-4.94,.32-9.56,1.5-13.76,.63-3.43-.71-6.98-3.33-9.36-6.07-6.28-7.21-3.67-17.89,4.63-20.61,3.63-1.19,7.01-.68,9.41,2.55,1.98,2.66,.95,6.4-1.89,6.86-.95,.15-2.63-.79-3.1-1.69-1.47-2.84-3.38-3.26-5.29-.79-2.07,2.67-1.24,6.55,1.9,8.69,3.94,2.69,8.18,2.21,11.8-.12,5.01-3.22,9.5-7.23,14.32-10.76,8.03-5.88,16.06-11.76,24.23-17.44,15.58-10.85,27.88-24.33,36.46-41.5,5.79-11.58,8.27-23.66,10.34-36.23,1.03-6.23,4.61-12.55,8.53-17.68,6.85-8.95,10.66-18.39,9.1-29.63-.29-2.08-1.66-4.01-2.53-6.02-1.63,.87-3.26,1.74-4.89,2.61-.35-.11-.7-.23-1.06-.34,1.66-2.33,2.91-5.2,5.09-6.86,3.72-2.83,5.27-6.32,6.56-10.69,1.36-4.61,3.69-9.42,6.94-12.89,6.84-7.31,10.52-15.09,8.68-25.3-.6-3.31,.27-6.89,.5-10.94-1.32,.16-2.9,.22-4.42,.56-10.85,2.4-19.52,8.29-26.53,16.77-3.36,4.07-4.99,8.42-3.05,13.85,1.75,4.9-.04,9.37-3.79,12.64-4.71,4.11-5.82,8.62-3.14,14.24,.71,1.48,1.39,3.2,1.32,4.78-.3,7.01,.87,13.09,6.08,18.64,3.04,3.24,1.93,8.37-1.27,11.95-2.65,2.96-5.6,3.02-7.93,.28,1.93-1.57,4.1-2.7,5.12-4.48,.45-.79-1.23-4.01-2.31-4.22-2.38-.46-5.61-.53-7.34,.77-1.99,1.5-3.86,4.69-3.77,7.08,.2,5.69,1.04,11.51,2.65,16.96,1.83,6.21,2.23,12.04-2.3,16.86-2.06,2.19-5.58,3.8-8.57,4.06-1.85,.16-4.57-2.37-5.73-4.37-.75-1.29,.63-3.81,.98-5.42,2.02,2.15,3.46,3.68,4.91,5.21,2.51-2.66,5.58-5.03,7.23-8.14,.61-1.14-1.76-5.39-3.42-5.85-2.5-.69-6.17-.12-8.29,1.39-8.34,5.92-12.91,14.28-13.06,24.61-.03,2.5,.83,5.42,2.31,7.38,1.02,1.36,3.8,1.41,5.79,2.04,.33-2.06,.83-4.11,.9-6.18,.03-.78-.94-1.6-1.52-2.5,5.66-1.1,8.91,.75,9.58,5.21,.58,3.84-2.51,7.61-6.89,8.39-7.45,1.33-15.2-4.99-15.81-13.01-.95-12.6,2.76-23.69,11.11-33.17,6.9-7.83,12.4-16.41,15.12-27.55-1.22,.78-1.9,1.04-2.34,1.53-6.55,7.32-13.27,14.51-19.54,22.06-5.46,6.58-7.95,14.3-8.57,22.99-.39,5.48-2.81,10.81-4.31,16.22-1.58,5.68-4.01,11.3-4.5,17.08-.72,8.43,.08,16.98,0,25.47-.03,3.55,1.99,4.6,4.73,4.07,3.02-.58,5.88-1.96,8.71-2.97-.42,6.93-5.16,8.84-14.91,5.3-.6,1.62-1.11,3.3-1.82,4.89-3.06,6.85-7.38,12.41-15.41,13.45-5.79,.75-9.69-2.58-9.94-8.05,4.79,3.83,8.4,3.74,13.07-.44,5.13-4.6,7.4-10.63,7.89-17.29,.33-4.41,.06-8.87,.06-14.94-4.49,2.21-8.55,3.57-11.82,5.99-3.93,2.91-2.97,6.04,1.83,8.81-1.64-.08-3.96,.47-4.77-.39-1.66-1.77-3.57-4.33-3.5-6.51,.19-6.12,4.87-9.11,9.94-11.28,1.95-.83,4.15-1.1,6.23-1.63,.14-.49,.29-.98,.43-1.47-2.2-.57-4.41-1.6-6.6-1.56-1.66,.03-3.49,1.17-4.9,2.26-6.8,5.3-13.53,10.69-20.18,16.18-2.98,2.46-3.93,4.79-.35,8.17,1.69,1.59,2.25,5.44,1.71,7.91-.32,1.45-3.8,2.21-5.82,3.27,.46-3.24,1.35-6.79,.93-6.94-2.86-1.09-7.22-3.05-8.82-1.81-6.01,4.67-12.25,7.87-19.9,8.38-.77,.05-2.25,2.55-1.95,3.06,1.34,2.29,2.9,5.5,4.97,6.03,2.3,.58,5.41-1.09,7.84-2.4,1.15-.62,1.54-2.68,2.27-4.09,.52-.05,1.03-.09,1.55-.14,.41,2.51,1.94,5.66,.96,7.39-1.45,2.57-4.41,5.24-7.2,5.93-7.99,1.96-15.44-3.84-16.02-12.28-.25-3.61-1.57-4.6-4.78-5.41-9.34-2.36-13.69-12.83-7.95-19.2,1.64-1.82,4.9-3.16,7.31-3,1.97,.13,3.76,2.83,5.63,4.38-.27,.32-.54,.64-.81,.96-1.73-.56-3.56-1.76-5.15-1.48-1.45,.25-3.15,1.85-3.82,3.28-1.62,3.49,.96,8.01,5.6,8.94,10.95,2.2,20.96-1.1,28.24-9.01,7.17-7.79,15.03-14.36,23.37-20.77,11.43-8.8,20.19-20.31,27.24-32.9,3-5.36,4.02-11.1,3.35-17.69-.86-8.35,1.86-16.15,8.27-22.69,5.42-5.52,10.13-11.93,14.19-18.54,5.54-9.01,5.3-18.69,.72-28.21-1.77-3.68-4.17-6.37-8.79-6.05-5.82,.4-10.89,2.04-13.5,7.79-1.97,4.34-1.49,8.75,1.83,12.06,1.51,1.51,4.57,2.25,6.75,1.97,1.15-.15,3.14-3.91,2.61-4.86-.99-1.78-3.52-2.71-5.58-4.1,1.93-3.58,6.05-4,8.82,.21,2.3,3.49,1.62,7.04-.62,10.29-2.11,3.06-5.08,4.13-8.74,3.19-6.65-1.7-10.02-6.42-10.84-15.27-9.47,5.03-13.84,18.82-9.05,29.54,1.76,3.92,4.77,7.3,6.39,11.27,1.59,3.88,2.97,8.2,2.92,12.3-.06,5.34-5.82,8.71-9.9,6.5-2.04-1.11-3.91-2.31-1.91-5.44,2.3-3.59,.09-6.99-4.43-7.64-5.93-.85-12.79,3.38-14.64,9.01-1.87,5.71,.08,9.85,6.36,13.49,7.85,4.54,11.13,11.92,8.54,19.19-2.71,7.6-11.63,11.28-18.35,7.47-4.13-2.34-6.34-5.72-4.95-11.5,2.79,3.56,5.96,4.82,8.83,1.31,2.82-3.46,1.71-7.39-1.38-9.78-3.32-2.57-7.29-5-11.31-5.81-5.63-1.13-11.59-1.17-17.36-.83-6.87,.42-10.53,3.74-11.14,8.76-.55,4.52,1.76,7.38,8.29,10.23-9.57,1.3-15.85-4.61-14.68-13.95,.27-2.13,.65-4.36,1.55-6.28,1.68-3.55,2.03-6.61,.75-10.69-.85-2.71,1.18-6.88,3.05-9.64,.89-1.31,4.4-.85,6.6-1.18-1.55,3.07-2.58,5.11-3.6,7.14,2.3,.88,4.67,2.66,6.88,2.49,10.79-.85,20.41-4.9,28.16-12.57,5.07-5.02,8.19-11.06,6.07-18.49-1.76-6.18-6.33-7.6-10.75-3.07-4.16,4.27-7.87,9.03-11.34,13.88-2.68,3.75-5.87,5.65-10.2,4.1-10.03-3.59-17.59,.55-24.1,7.53-3.78,4.05-7.76,6.88-13.52,7.58-5.56,.67-8.22,6.19-5.98,11.94,1.18,3.02,3.21,5.83,5.31,8.36,5.07,6.11,8.79,12.6,7.54,19.43,8.5,6.52,16.27,12.41,23.96,18.4,6.62,5.15,16.17,4.39,20.21-2.33,1.48-2.47,2.04-6.62,.98-9.15-.82-1.95-4.82-2.57-7.52-3.83,1.09-2.97,5.2-3.8,9.13-.7,5.45,4.29,5.54,13.51-.01,18.59-5.9,5.4-12.9,5.95-20.1,3.44-3.57-1.24-6.97-3.18-10.15-5.27-3.69-2.42-6.87-3.87-9.53,2.3-.61-2.32-.93-3.71-1.35-5.06-2-6.42-7.68-10.5-13.93-9.84-4.58,.48-8.6,2.36-10.08,6.98-1.49,4.65,.16,9,3.55,12.3,3.38,3.29,7.55,2.93,11.66,1.16,1.02-.44,2.05-.89,3.2-1.39-.35,5.86-3.18,8.49-8.8,8.49-10.07,0-19.38-10.92-19.12-22.43,.03-1.31,.19-2.63,.34-4.53-1.63,.18-3.02,.34-4.41,.48-11.5,1.18-20.76-9.2-18.26-20.46,.98-4.42,3.04-6.46,7.12-7.3,0,3.21,.06,6.47-.02,9.74-.1,4.01,.02,7.83,4.97,9.04,3.95,.96,9.99-1.64,12.13-5.23,7.29-12.23,.11-25.68-13.85-26-.47-.01-.93-.3-1.82-.62-.25-5.69,2.17-10.44,6.5-13.64,5.04-3.72,10.71-6.64,16.24-9.66,3.75-2.05,7.6-3.75,7.11-9.05-.42-4.48-3.84-8.5-9.12-9.31-11.47-1.77-22.22,.17-31.64,7.45-.52,.41-.99,.89-1.46,1.37-3.47,3.56-5.94,7.79-3.32,12.51,1.19,2.14,4.5,4.09,7.01,4.3,5.36,.45,8.32-3.4,10.16-8.05,.48-1.22,.83-2.49,2.46-3.86,.12,2.19,.75,4.48,.29,6.54-2.15,9.7-14.64,15.42-23.02,10.06-2.77-1.77-4.88-5.89-5.58-9.28-1.55-7.44,1.41-14.02,5.98-19.93,13.48-17.45,35.22-24.7,56.71-18.75,6.25,1.73,12.44,3.73,19.28,.93-2.49-3.04-4.85-5.91-7.21-8.79,7.79,6.09,16.02,6.86,24.77,3.09,8.07-3.49,15.35-8.16,20.05-15.88,3.91-6.41,3.27-8.06-3.86-9.95-4.5-1.19-9.1-2.12-13.72-2.62-2.54-.28-5.74-.21-7.68,1.11-2.3,1.56-4.47,4.47-4.96,7.11-.28,1.54,2.85,3.7,4.48,5.63-2.84,2.27-6.35,1-7.9-3.77-1.8-5.53,1.17-12.6,7.21-16.75,2.03-1.39,4.33-2.39,5.46-3.01,1.24-4.18,2.23-7.53,3.25-10.98,1.72,4.25,2.19,8.64,4.61,10.55,2.82,2.23,7.51,3.52,11.1,3.04,6.41-.85,12.61-3.34,18.89-5.14l.02-1.99c-1.41-.93-2.74-2.01-4.23-2.77-11.11-5.65-22.87-9.18-35.32-10.18-18.63-1.49-33.62,6.64-47.06,18.34-4.42,3.85-7.08,9.14-5.94,15.18,.49,2.59,2.44,6.32,4.45,6.86,2.51,.68,5.92-1.08,8.61-2.44,.98-.49,1.45-2.9,1.31-4.35-.08-.82-2.1-2.25-2.83-2.03-1.36,.41-2.46,1.77-3.57,2.85-.39,.38-.46,1.08-.74,1.82-3.23-4.39-.66-9.55,4.86-10.48,5.63-.95,10.33,3.89,9.49,9.77-1.33,9.31-12.33,14.79-21.28,10.61-8.03-3.75-12.74-12.94-10.88-22.08,.82-4.02,2.49-7.87,3.82-11.95-.02-.02-.21-.43-.44-.45-16.93-1.35-33.4,.29-48.27,9.16-8.96,5.34-14.62,13.17-13.58,24.32,.85,9.1,8.97,16.25,17.19,15.38,8.54-.9,15.73-8.95,14.72-17.18-.4-3.24-2.26-6.3-3.36-9.19,6.7,2.28,10.59,9.37,8.86,16.77-1.92,8.2-9.3,14.46-18.08,14.53-4.26,.03-8.66-.73-12.76-1.94-16.62-4.94-21.52-18.93-12.03-33.57,1.53-2.37,3.36-4.69,4.22-7.31,1.05-3.21,1.23-6.7,2.07-11.79-8.09,3.24-16.2-6.15-22.86,3.88,3.81-5.59,.87-9.8-1.85-14.39-2.1-3.54-1.75-7.81,1.54-10.51,1.69-1.38,4.99-1.89,7.13-1.27,1.57,.45,2.43,3.37,3.95,5.71-1.9,.37-2.35,.48-2.81,.54-1.4,.18-2.8,.35-4.2,.52,.71,1.5,1.01,3.69,2.19,4.37,5.96,3.46,12.3,3.49,18.82,1.4,7.09-2.27,14.26-4.3,21.98-6.61-8.69-6.11-15.83-13.9-19.32-24.65-9.9,3-19.42,3.53-28.91,.38-4.89-1.63-9.25-4.04-10.99-9.32-1.15-3.47-.5-6.72,2.55-8.95,2.76-2.01,5.52-1.65,8.71,1.3-4.5,.57-8.39,1.53-7.64,6.57,.77,5.13,4.8,7.65,9.26,7.56,8.92-.18,17.81-1.36,26.49-2.12,.86-7.16,1.16-13.3,2.39-19.25,3.41-16.43,15.08-26.56,29.48-26.09,11.87,.39,24.35,8.84,26.44,20.06,1.43,7.64,.68,15.44,5.71,22.34,1.79,2.46,.63,6.41-3.84,9.58,2.25-6.37,.12-10.17-4.38-13.43-8.39,7.17-16.6,5.14-25.77-1.19,3.24-.47,5.45-.63,7.58-1.12,6.45-1.5,10.56-6.26,10.67-12.16,.1-5.52-3.36-9.62-10.05-11.35-8.46-2.19-16.25-.97-22.67,5.41-6.28,6.24-7.12,13.82-4.31,21.75,4.76,13.4,11.34,25.43,26.46,29.6,8.48,2.34,16.99,1.33,25.14-1.35,21.64-7.11,43.8-11.53,66.39-14.05,3.94-.44,7.87-1.06,13.14-1.79-2.63-5.01-4.15-9.98-7.29-13.48-9.76-10.88-19.78-21.59-30.42-31.6-6.39-6.02-14.74-9.32-23.77-8.98-2.7,.1-7.14,1.94-7.55,3.73-.59,2.55,.97,6.92,3.1,8.47,3.61,2.62,8.35,3.74,12.68,5.32,3.89,1.42,8.09,2.15,11.73,4.01,3.99,2.05,4.26,5.1,1.33,9.58-6.7-11.36-18.97-11.19-29.5-14.35-9.16-2.75-12.85-9.53-15.2-17.54-1.27-4.35,1.71-8.53,6.75-11.02,12.11-5.97,23.65-2.93,35.1,2.18,4.09,1.82,8.16,4.03,12.47,4.96,10,2.15,18.83-5.7,17.41-14.96-.71-4.64-3.54-7.52-7.95-8.63-4.44-1.12-8.42,.22-11.04,3.96-1.05,1.49-.91,3.82-1.35,5.9,1.58,.13,1.94,.27,2.22,.17,1.35-.49,2.68-1.04,4.01-1.56,.29,.89,1.06,2.34,.78,2.59-1.26,1.1-2.78,2.56-4.27,2.63-4.91,.23-8.42-4.78-6.09-9.4,1.79-3.55,4.76-6.84,7.96-9.24,2.94-2.21,5.87-3.89,7.37-7.59,.77-1.91,2.91-3.27,5.29-5.79-2.98,14.84,4.62,22.84,19.42,21.66,4.89-.39,9.95-1.57,14.43-3.55,9.16-4.04,18.32-4.91,27.75-1.85,8.38,2.73,16.8,5.46,24.87,8.97,3.8,1.65,7.09,4.83,10.13,7.81,5.95,5.84,10.39,5.12,13.08-2.81,2.8,3.56,2.37,7.1,.03,10.17-4.19,5.52-8.92,1.24-13.88-.1,3.74,11.19,6.09,21.92-4.58,30.32-10.11,7.95-19.52,5.31-28.31-2.68-1.58,1.21-2.82,2.31-4.2,3.17-4.13,2.55-9.15,2.2-12.52-.97-3.49-3.29-4.59-7.36-2.73-11.84,1.38-3.33,4.16-4.94,7.69-3.79,3.46,1.13,3.65,3.82,2.89,5.74-3.06,.58-5.56,.53-7.33,1.64-.68,.43-.32,4.62,.62,5.11,2.18,1.16,5.3,2.06,7.51,1.37,5.78-1.81,6.62-4.37,6.57-10.84-.03-3.2,.76-6.74,2.32-9.48,.94-1.65,4.05-2.7,6.24-2.8,1.71-.08,3.51,1.71,5.08,3.38-4.91,.95-8.75,2.17-8.31,7.81,.38,4.9,5.41,9.17,10.81,9.27,6.49,.12,11.75-4.92,12.25-12.04,.53-7.6-2.6-13.91-8.5-18.27-13.37-9.88-28.8-11.53-44.74-9.59-6.98,.85-10.13,6.65-12.72,12.29-4.45,9.7-3.98,19.83,.66,29.06,9.74,19.37,23.92,33.95,46.25,38.37,5.06,1,10.17,2.43,15.27,2.48,6.55,.06,13.25-.43,19.61-1.86,6.62-1.49,13.42-3.52,19.23-6.89,6.33-3.68,13-8.21,17.05-14.07,7.52-10.88,13.72-22.77,19.57-34.68,3.9-7.95,4.01-16.8,1.4-25.41-2.7-8.92-5.61-17.78-8.38-26.68-4.03-12.95-12.44-21.36-25.64-24.81-22.92-5.99-45.94-11.28-69.81-11.64-6.02-.09-12.02-.86-18.03-1.32l-.25-1.94c1.99-.85,3.92-2.23,5.98-2.47,12.37-1.44,24.75-2.83,37.17-3.8,6.29-.49,12.66-.06,18.99-.1,1.55-.01,3.11-.24,4.66-.37l.37-1.29c-1.23-.88-2.42-1.85-3.71-2.62-12.97-7.79-26.98-8.7-41.56-6.47-11.35,1.74-22.75,3.19-34.16,4.51-2.23,.26-4.59-.71-6.87-1.98,21.05-10.96,44.05-8.55,66.45-9.89l.37-1.72c-3.19-1.42-6.26-3.36-9.61-4.17-13.65-3.31-27.18-2.26-40.32,2.5-9.24,3.35-18.13,7.7-27.47,10.67-5.03,1.6-10.92,2.43-16.02,1.47-9.82-1.85-12.94-12.23-6.9-20.63,1.3,1.86,2.19,4.57,3.95,5.35,3.13,1.39,6.96,2.66,10.16,2.09,4.91-.88,7.74-5,8.74-9.91,1.24-6.12-.75-11.4-5.67-15.04-3.56-2.64-7.61-4.8-11.7-6.54-12.94-5.48-22.33-15.47-32.12-24.93-2.02-1.95-3.01-4.97-4.98-8.38,6.82-1.1,12.64-2.18,18.52-2.83,.94-.1,2.23,1.66,3.14,2.74,6.34,7.48,12.11,15.54,19.05,22.41,16.36,16.23,36.45,21.07,58.91,17.69,12.27-1.85,24.53-1.89,36.79,.61,3.4,.69,7.07,.11,10.61,.11l.45-1.74c-2.01-1.26-3.87-2.95-6.06-3.71-21.59-7.45-43.69-11.73-66.67-10.17-.83,.06-1.74,.03-2.46,.37-7.34,3.44-12.49,1.04-18.74-4.04-7.58-6.17-13.13-11.4-12.65-22.41,.29-6.66-3.73-13.61-6.3-20.25-2.7-6.98-6.01-13.71-8.98-20.59-.52-1.21-.75-2.56-1-3.87-1.86-9.88-.58-11.46,9.4-11.25,4.66,.1,10.42-1.1,13.64,1.18,3.01,2.13,3.39,8.06,4.8,12.36,4.95,15.1,12.47,28.73,23.57,40.16,8.22,8.47,17.82,14.17,30.3,11.44,2.94-.64,5.67-2.26,9.4-3.81-10.32-8.11-20.73-13.48-31.68-17.91-2.31-.94-4.66-2.19-7.07-2.42-10.83-1.04-14.99-9.04-18.99-17.79,11.84-8.72,16.51-21.64,19.55-35.33,5.15-23.17,13.55-44.88,27.33-64.39,18.99-26.89,44.78-43.88,76.32-52.22,15.1-3.99,30.44-7.08,45.73-10.25,3.5-.73,7.28-.11,10.87-.11-5.19,5.57-10.08,10.98-15.2,16.15-.89,.9-2.76,.9-4.2,1.15-32.4,5.54-61.15,18.81-84.6,41.97-14.36,14.18-26.15,30.87-29.51,51.14-2.97,17.92-1.42,36.26,2.54,54.14,2.19,9.88,8.77,16.83,15.94,23.6,15.01,14.19,33.18,23.85,49.79,35.74,7.83,5.6,16.56,9.77,26.36,10.87,1.03-3.6,1.4-7.27,3.06-10.2,3.28-5.8,1.99-10.61-1.63-15.53-4.73-6.44-8.93-13.3-14.05-19.41-3.12-3.72-4.63-7.27-3.93-12,.31-2.09,.05-4.26,.05-6.4l1.49-.93c9.08,10.82,18.16,21.64,27.41,32.65,2.85-4.51,6.11-9.41,9.05-14.51,.59-1.03,.3-2.91-.18-4.17-5.28-13.9-4.63-28.18-2.33-42.41,1.53-9.48,6.94-17.18,13.36-24.15,3.49-3.8,6.9-7.67,9.9-11.01-5.76-8.83-12.24-18.07-17.99-27.74-8.41-14.16-8.09-29.67-5.2-45.15,1.64-8.77,7.07-15.75,13.48-21.78,4.12-3.88,8.66-7.29,12.92-11.02,2.41-2.11,4.56-2.27,7.03-.09,4.37,3.85,9.12,7.3,13.26,11.39,15.02,14.81,19.7,39.4,11.19,59.73-2.68,6.41-6.11,12.6-9.84,18.47-3.64,5.73-8.12,10.93-12.18,16.29,6.06,6.41,12.22,12.92,19.13,20.23-1.7-3.09-2.78-5.49-4.24-7.64-4.15-6.13-4.78-12.02-1.47-19.12,11.58-24.79,29.58-44.08,50.58-60.96,4.02-3.23,8.27-4.15,12.69-.89,5.41,3.98,10.73,8.09,16.82,12.7-13.01,9.73-24.63,18.61-36.45,27.23-17.92,13.07-29.91,30.13-35.35,51.67-.33,1.31-.31,2.89,.11,4.17,5.35,16.52,5.74,33.1-.03,49.51-2.02,5.75,2.47,8.4,3.83,12.4,9.25-11.08,18.39-22.02,27.53-32.96l1.29,.9c.34,7.2,1.16,13.92-4.97,20.32-6.02,6.27-10.31,14.27-14.91,21.79-1.16,1.9-1.63,5.33-.7,7.22,4.17,8.52,3.95,16.81,.93,25.61-5.92,17.3-11.14,34.84-17.24,52.08-1.99,5.62-5.81,10.6-9.29,15.64,4.45-27.88-2.43-53.44-13.06-78.34-.62-.1-1.24-.2-1.85-.29-2.8,4.84-6.16,9.45-8.29,14.57-6.91,16.59-10.36,34.03-11.35,51.96-.42,7.62,.99,14.87,4.51,21.75,5,9.78,9.87,19.62,14.58,29.54,1.02,2.15,1.15,4.72,.36,6.65,1.89-4.44,3.54-9.01,5.72-13.31,14.69-28.87,26.13-59.09,36.49-89.69,3.23-9.55,6.62-16.03,17.95-18.83,9.73-2.4,18.22-9.92,27.19-15.29,2.56-1.53,4.7-3.84,7.36-5.11,13.01-6.2,23.05-16.3,33.88-25.36,8.99-7.53,14.35-17.29,14.97-28.94,.85-16.08,1.08-32.21,1.01-48.31-.01-3.8-1.9-7.74-3.51-11.35-15.39-34.48-41.92-57.14-76.61-70.46-11.26-4.32-23.36-6.46-35.04-9.72-1.41-.39-2.91-1.31-3.86-2.41-4.31-5.06-8.44-10.27-12.63-15.43l-1.93,.97c4.95,0,10.02-.72,14.83,.12,26.16,4.56,52.08,10.46,75.48,23.47,33.67,18.72,53.63,48.51,65.26,84.5,.67,2.06,1.26,4.14,1.92,6.2,.09,.29,.37,.52,.57,.77,15.46-.69,30.91-1.55,46.38-2,11.07-.32,15.18,5.48,12.29,17.24-3.68-.7-7.39-2.02-11.1-2.01-12.29,0-24.61,.16-36.87,.99-3.79,.26-6.05,.17-7.17-3.69-.26-.92-.94-1.71-1.69-2.42,3.15,14.73,6.95,29.11,20.48,39.05-2.75,4.48-5.2,8.98-8.2,13.09-1.01,1.38-3.3,2.04-5.14,2.56-14.23,4.01-27.48,10.1-39.7,18.42-1.36,.93-2.66,1.95-4.56,3.36,5.26,4.31,10.9,5.53,16.98,4.89,8.5-.9,15.41-5.15,21.29-11.11,13.44-13.63,22.07-29.99,26.39-48.53,1.03-4.42,2.82-6.12,7.24-5.92,4.82,.22,9.66,.05,14.49-.13,3.23-.12,4.97,1.44,4.47,4.43-.95,5.68-2.12,11.36-3.71,16.89-.99,3.43-2.91,6.6-4.36,9.75,17.19,4.28,33.94,8.45,51.38,12.8-1.03,3.86-1.95,7.28-3.12,11.66-16.99-9.54-34.82-12.6-53.82-12.05-3.08,6.38-4.06,13.57-3.55,20.91,.23,3.28-.9,5.18-3.38,7.07-5.16,3.92-10.05,8.2-15.16,12.2-.91,.71-2.54,1.43-3.46,1.09-15.43-5.71-30.98-3.25-46.4-.44-9.96,1.82-19.78,4.46-29.56,7.11-2.86,.78-5.37,2.84-8.04,4.32,.12,.54,.24,1.08,.36,1.62,3.02,.15,6.18,.96,9.04,.35,14.43-3.06,28.85-2.29,43.27-.43,25.57,3.29,45.46-6.89,61.71-25.71,4.13-4.78,7.71-10.02,11.65-14.97,.85-1.07,2.24-2.64,3.22-2.53,5.74,.64,11.42,1.72,17.59,2.73-3.04,11.46-13.28,15.9-21.18,24.3,11.35-.58,21.68,1.88,30.54-6.21,12.71-11.6,15.1-26.37,14.41-42.41-.34-7.94-2.76-15.08-7.72-21.22-2.84-3.51-3.12-6.97-1.84-11.16,1.49-4.89,2.34-9.98,3.45-14.95,18.82,8.81,31.26,32.43,29.11,55.25-2.42,25.64-13.86,46.24-34.18,61.98-.4,.31-.83,.57-1.19,.91-3.62,3.44-9.27,5.82-8.02,12.15,1.65,8.3,6.05,14.85,15.19,18.48-.35-4.1-.7-8.21-1.04-12.18,5.2,1.96,11.28,12.56,10.13,18.01-.96,4.54-5.46,7.64-10.41,5.81-3.84-1.42-7.39-4.3-10.36-7.24-9.44-9.37-18.13-19.54-27.94-28.48-6.45-5.88-14.33-10.21-21.63-15.13-.61-.41-1.88-.3-2.64,.03-7,3.04-10.77,12.44-7.76,19.47,2.05,4.79,5.6,7.87,10.97,8.23,4.58,.31,7.67-2.1,10.85-8.06,6.3,5.8,3.54,17.75-4.35,19.78-4.9,1.26-10.69,1.45-15.51,.08-8.76-2.5-17.08-6.54-25.6-9.89-12.95-5.09-26.31-7.54-40.15-5.06-4.88,.87-9.55,2.95-14.17,5.6,22.51,2.7,45.54,.14,66.55,10.15,.04,.61,.08,1.23,.12,1.84-2.4,.41-4.88,1.41-7.2,1.14-11.24-1.29-22.47-2.73-33.65-4.49-14.94-2.36-29.24-1.34-42.45,6.81-.84,.52-1.66,1.09-2.43,1.71-.21,.17-.23,.59-.64,1.73,22.47,1.84,45.47-2.25,66.91,6.32l.05,2.41c-5.94,.48-11.87,1.29-17.81,1.38-24.04,.37-47.22,5.65-70.3,11.73-13.71,3.61-21.77,12.71-25.84,25.88-2.51,8.11-5.02,16.22-7.61,24.31-2.92,9.11-2.96,18.34,1.17,26.84,5.58,11.49,11.69,22.8,18.5,33.61,5.24,8.31,12.98,14.26,22.81,16.89,.32,.09,.65,.18,.94,.33,18.1,9.53,36.65,7.51,55.44,2.46,18.61-5,40.37-29.43,42.29-48.57,.47-4.68-.07-9.74-1.35-14.28-3.44-12.14-9.96-16.79-22.47-16.15-13.2,.68-26.38,1.92-37.05,11.19-6.33,5.5-9.11,14.23-6.76,21.14,2.12,6.24,8.16,9.64,14.19,7.98,4.72-1.3,8.19-5.42,8.11-9.62-.08-3.86-1.6-5.15-9.5-6.93,2.51-1.63,4.13-3.55,5.52-3.39,2.52,.29,6.2,1.17,7.07,2.95,1.58,3.23,2.06,7.32,1.9,11-.24,5.38,6.91,11.7,11.92,9.72,2.96-1.17,4.98-3.75,3.34-6.64-.83-1.46-4.07-1.56-6.68-1.7-1.99-2.44-1.43-4.97,2.11-6.3,3.2-1.2,7.1,1.22,7.98,4.96,1.05,4.4,.02,8.34-3.68,11.18-3.87,2.98-8.03,2.91-12.14,.47-1.27-.75-2.35-1.84-3.95-3.13-9.32,8.67-19.55,10.77-29.69,1.66-9.38-8.43-7.09-18.76-3.04-29.4-4.94,1.29-9.77,5.93-14.16,.19-2.39-3.13-2.67-6.63,.11-10.17,2.52,8,6.94,8.67,12.97,3.06,4.05-3.77,8.74-7.15,13.7-9.56,5.95-2.89,12.47-4.62,18.78-6.75,10.55-3.56,20.82-3.39,31.06,1.6,6.88,3.35,14.38,4.22,21.96,2.46,10.2-2.37,14.28-9.49,11.77-19.98,1.53,1.46,3.7,2.64,4.46,4.43,1.6,3.78,4.5,5.71,7.66,7.99,3.23,2.33,6.12,5.73,7.92,9.29,2.3,4.55-1.3,9.54-6.21,9.34-1.4-.06-3.11-1.15-3.97-2.3-.49-.66,.44-2.38,.89-4.29,1.85,1.51,2.93,2.39,4.13,3.37,3.04-2.14,2.07-4.36,.55-6.51-3.39-4.8-10.4-5.74-15.1-2.09-4.75,3.7-5.71,11.34-1.81,16.15,4.04,4.98,9.48,6.87,15.64,5.46,3.68-.84,7.19-2.55,10.66-4.15,8.88-4.1,17.88-7.46,27.92-5.69,1.96,.35,3.93,.83,5.78,1.55,10.01,3.85,12.01,9.8,6.91,19.19-3.14,5.77-7.37,9.72-14,10.93-2.94,.54-5.78,1.59-8.68,2.35-7.42,1.96-15.07,3.52-18.94,11.75-3.55-3.07-3.36-6.09-.62-8.35,2.35-1.94,5.4-3.21,8.34-4.2,3.13-1.06,6.73-.93,9.7-2.27,3.67-1.66,7.65-3.67,10.15-6.66,3.79-4.53,1.28-9.3-4.65-9.75-8.89-.68-16.88,2.25-23.84,7.46-13.16,9.85-24.47,21.59-33.79,35.15-2.21,3.22-3.61,7-5.65,11.05,1.93,.5,3.13,.96,4.36,1.11,25.69,3.03,51.2,6.93,75.76,15.49,.63,.22,1.29,.33,1.94,.49,25.05,6.16,41.74-4.04,49.64-32.36,2.39-8.56-1.39-16.66-8.52-21.27-7.18-4.64-18.07-4.72-24.69-.19-6.42,4.4-6.37,14.18,.59,18.54,3.37,2.11,7.63,2.78,11.31,4.04-4.67,6.48-14.78,7.2-23.76,1.15-5.32,3.27-6.39,5.72-5.14,11.82-3.94-1.76-5.83-6.78-2.51-10.84,4.17-5.11,4.33-10.1,4.08-16.2-.36-8.83,8.97-18.76,19.14-22.15,10.87-3.63,22.28-.56,29.52,7.95,5.97,7.02,8.42,15.4,9.29,24.34,.32,3.3,.35,6.63,.54,10.47,9.08,2.29,18.31,4.12,27.85,3.19,1.73-.17,3.99-.89,4.9-2.15,1.61-2.23,3.44-5.2,3.15-7.62-.22-1.81-3.61-3.25-6.44-5.54,2.09-.3,5.07-1.65,6.38-.69,2.11,1.54,4.19,4.51,4.36,7.02,.35,4.98-3.16,8.24-7.45,10.28-8.6,4.09-17.63,4.59-26.86,2.68-1.78-.37-3.53-.84-5.81-1.38-3.65,10.42-10.32,18.49-19.79,24.54,9.56,2.72,18.48,5.68,27.63,7.66,3.5,.76,7.64-.25,11.19-1.36,1.92-.6,3.24-3.13,4.84-4.79-1.81-.67-3.63-1.34-6.53-2.42,.68-1.3,1.19-3.88,2.65-4.65,1.72-.91,4.6-.97,6.4-.13,3.98,1.85,4.95,6.99,2.86,11.88q-3.3,7.7-2.09,14.57c-5.94-10.45-14.15-1.51-21.27-3.95-1.71,6.48,.3,11.47,3.24,16.48,2.25,3.83,4.53,7.85,5.68,12.08,2.49,9.18-1.07,17.35-9.83,21.08-5.84,2.49-12.42,4.22-18.73,4.44-12.07,.43-21.44-11.4-17.82-22,1.27-3.73,4.57-6.77,6.94-10.12,.55,.35,1.09,.7,1.64,1.05-.2,.5-.29,1.07-.6,1.48-4.03,5.22-4.29,10.73-.97,16.3,3.32,5.56,8.29,8.86,14.86,8.37,6.72-.5,11.55-4.34,13.91-10.63,2.56-6.83,1.74-13.65-2.58-19.49-2.62-3.55-5.87-7.03-9.6-9.3-15.12-9.2-31.88-10.45-49.3-9.58,1.49,4.32,3.11,7.96,4,11.77,2.07,8.96-1.97,18.08-9.51,22.31-9.03,5.07-20.71,.09-22.5-9.6-.78-4.23,1.32-8.24,5.27-9.67,4.19-1.52,7.72-.26,9.85,3.51,.93,1.65,.62,3.99,.86,5.91-2.77-1.68-4.69-3.03-6.8-3.93-.32-.14-2.36,2.41-2.18,2.64,1.59,2.09,3.15,4.68,5.37,5.7,4.78,2.21,8.1,.25,9.15-4.98,1.51-7.51-1.69-13.5-7.22-18.09-16.29-13.54-34.53-20.94-55.99-15.44-8.34,2.14-16.39,5.46-24.51,8.39-1.64,.59-3.04,1.82-5.33,3.24,9.04,5.48,17.52,9.2,27.42,5.97,5.59-1.82,7.25-5.3,6.28-11.67,3.85,1.91,4.12,2.57,3.74,8.86,3.35,2.41,6.87,4.38,9.68,7.09,3.79,3.64,5.55,8.34,4.04,13.68-1.33,4.71-4.81,5.98-8.06,4.04,1.65-2.21,4.59-4.37,4.7-6.67,.21-4.42-3.7-7.36-7.56-7.07-7.88,.59-15.68,2.37-23.45,3.94-.65,.13-1.44,2.45-1.23,3.58,1.96,11.03,25.26,27.66,38.8,21.54,2.61-1.18,4.92-3.04,7.96-4.15-2.3,2.87-4.6,5.74-7.13,8.9,5.67,2.46,11.07,1.48,16.51-.14,20.14-6.02,38.3-2.52,53.84,11.89,7.81,7.25,13.46,15.76,11.63,27.3-.79,4.98-3.63,8.23-8.49,9.36-6.91,1.62-12.94-.07-17.43-5.78-2.89-3.68-4.45-7.72-1.68-12.92,.87,2.38,1.41,4.27,2.22,6.02,1.88,4.08,5.02,7.16,9.58,6.69,2.53-.26,5.76-2.16,7.05-4.3,2.42-3.99,.55-8.07-2.35-11.41-1.3-1.49-2.78-2.93-4.43-4.01-8.75-5.72-18.46-7.48-28.67-6.06-2.48,.35-5.18,1.65-7.06,3.33-5.18,4.63-4.05,10.87,2.22,14.21,5.14,2.74,10.5,5.14,15.36,8.31,5.48,3.58,9.04,8.69,9.41,16.42-1.64,0-3.02,.03-4.4,0-6.31-.16-11.19,2.49-12.36,8.58-1,5.19-.68,10.9,.35,16.12,.93,4.73,7.97,8.21,12.5,6.58,2.06-.74,4.48-3.28,4.84-5.33,.74-4.31,.23-8.83,.23-13.22,5.3,.56,8.22,5.39,7.4,12.85-1.14,10.35-9.25,15.6-22.49,14.31-.22,3.22-.08,6.51-.72,9.64-1.74,8.51-6.71,14.48-15.18,16.88-6.7,1.9-11.27-1.13-12.11-6.79,4.47,0,9.19,.68,13.53-.31,1.96-.45,3.77-4.03,4.59-6.54,2.1-6.39-.68-11.08-7.1-13.02-8.08-2.44-13.95,1.93-18.07,13.96-2.78-6.49-6.36-3.83-9.98-1.38-6.83,4.62-14.06,7.68-22.54,5.39-9.68-2.62-14.25-12.53-9.33-20.17,3.21-4.98,8.44-5.43,12.43-.57-4.53-.52-8.71-.64-9.68,4.85-.79,4.51,2.51,9.56,7.68,11.61,5.49,2.17,10.34,1.01,14.92-2.6,7.53-5.92,15.21-11.65,23.63-18.07-1.17-6.96,2.38-13.68,7.85-19.75,1.44-1.6,2.65-3.43,3.78-5.27,3.72-6.02,2.23-14.62-7.18-15.43-3.11-.27-6.19-2.77-8.95-4.74-3.9-2.79-7.1-6.81-11.31-8.82-3.47-1.65-8.13-2.06-11.97-1.39-8.9,1.55-9.34,1.53-14.76-6.04-3.08-4.3-6.67-8.32-10.49-11.99-3.6-3.46-7.55-2.4-9.54,2.2-2.5,5.79-1.09,11.36,2.39,16.07,8.2,11.08,19.94,15.71,33.28,16.58,1.61,.11,4.54-1.78,4.77-3.1,.28-1.63-1.63-3.64-3.01-6.3,1.66,.08,4.79-.66,5.74,.46,1.99,2.33,4.7,6.54,3.81,8.37-2.86,5.88,.14,10.45,1.44,15.54,2.84,11.07-2.04,17.08-13.91,17.34,.03-.24,.01-.65,.11-.68,4.9-1.52,8.45-4.17,7.92-9.92-.43-4.7-4.05-8.45-10.13-8.56-7.56-.13-15.26,.48-22.65,2.02-3.28,.68-6.41,4.01-8.71,6.86-2.14,2.66-1.83,6.51,1.48,8.22,1.87,.96,4.77-.06,8.14-.23,.69,2.26-.18,5.24-2.91,7.79-3.84,3.6-9.6,4.29-14.4,1.75-5.06-2.68-8.11-8.65-7.16-14.23,.96-5.64,4.13-9.64,9.1-12.43,6.35-3.57,8.23-7.36,6.65-12.85-1.63-5.67-7.62-9.93-13.65-9.71-5.54,.21-7.36,3.23-5.26,8.46,.35,.87,.27,2.68-.24,2.98-1.75,1.03-3.93,2.43-5.68,2.14-4.3-.72-7.1-4.17-6.35-8.24,.93-5.06,2.79-10.21,5.4-14.65,3.84-6.51,6.87-12.95,5.66-20.69-1.09-7.03-4.41-12.67-10.94-17.24,.59,8.24-2.83,13.31-9.92,15.84-3.53,1.26-7.16,.77-8.81-2.49-1.43-2.82-1.89-6.53-1.52-9.7,.18-1.5,3.18-3.38,5.14-3.74,1.51-.28,3.41,1.55,4.42,2.07-2.44,1.78-4.94,2.86-6.06,4.76-.5,.84,1.43,4.17,2.94,4.83,1.48,.64,4.32-.07,5.67-1.23,4.98-4.26,4.78-12.18-.05-16.92-6.67-6.54-16.6-4.71-20.31,3.76-4.1,9.39-3.65,18.73,1.75,27.28,4.06,6.42,8.8,12.56,14,18.09,6.86,7.29,8.61,15.51,7.97,25.16-.3,4.56,.81,9.86,3.04,13.83,8.8,15.66,19.78,29.52,35.1,39.6,4.49,2.95,8.56,6.94,11.88,11.19,6.89,8.82,16.05,12.72,26.7,13.78,2.35,.23,5.01-.42,7.21-1.4,3.99-1.78,5.45-5.82,3.77-9.02-1.71-3.27-4.04-3.47-8.63-.76l-.94-.91c1.75-1.61,3.37-4.34,5.27-4.56,2.4-.27,5.74,.81,7.42,2.53,5.75,5.87,2.17,16.34-6.29,19.25-1.72,.59-3.54,.9-5.6,1.41-.16,1.62-.27,3.25-.5,4.85-1.2,8.21-8.94,13.94-16.62,11.62-2.65-.8-5.42-3.39-6.68-5.9-.91-1.81,.58-4.83,.99-7.32,.53,.05,1.06,.11,1.59,.16,.63,1.29,1.1,2.68,1.91,3.84,3.15,4.5,9.15,4.39,12.14-.16,2.44-3.72,1.2-5.44-2.97-6.77-5.58-1.78-11.13-4.1-16.1-7.16-3.02-1.86-5.36-2.17-8.28-.85-4.19,1.89-4.34,4.12-.5,7.06l-.35,1.29c-2.04-.64-5.47-.85-5.82-2.01-.76-2.47-.89-6.08,.44-8.08,3.55-5.33,3.55-6.6-1.61-10.41-5.32-3.93-10.3-8.32-15.56-12.35-2.21-1.69-4.59-3.54-7.18-4.24-2.06-.55-4.56,.53-6.87,.89,.08,.47,.16,.95,.24,1.42,3.43,1.37,7.45,2.04,10.12,4.3,2.79,2.37,5.36,6.06,6.07,9.57,.99,4.9-3.57,7.63-7.89,5.87,1.22-1.26,3.6-2.64,3.56-3.93-.06-1.8-1.53-4.17-3.12-5.18-3.06-1.96-6.63-3.15-10.97-5.11-.38,12.26-.82,22.92,7.41,31.46,4.84,5.02,8.83,5.2,13.79,1.16-.16,5.07-3.22,8.16-8.39,8.1-8.28-.09-12.87-5.41-16.3-12.09-.97-1.89-1.54-3.99-2.28-5.96-11.41,2.41-14.35,1.24-15.19-5.74,2.81,1.04,5.62,2.44,8.6,3.07,3.05,.65,5-.55,4.95-4.3-.1-7.33,.17-14.66,.29-21.99,.12-7.61-1.33-14.64-5.15-21.52-2.48-4.47-3.57-10.06-3.97-15.24-.58-7.56-2.27-14.61-6.96-20.48-7.11-8.89-14.69-17.4-22.65-25.62,1.85,10.65,7.19,19.29,14.1,27.06,5.67,6.39,9.54,13.69,10.78,22.14,.6,4.08,.73,8.33,.36,12.43-.63,7.07-7.81,12.62-14.78,11.93-4.66-.46-8.19-4.15-7.8-8.15,.42-4.42,3.52-6.39,9.51-5.75-.48,.91-.86,1.7-1.31,2.47-1.43,2.46-1.79,5.27,1.09,6.33,1.5,.55,4.71-.68,5.65-2.1,1.45-2.21,2.3-5.29,2.19-7.94-.43-9.87-4.88-17.84-12.72-23.85-1.04-.79-2.39-1.86-3.49-1.74-2.64,.27-5.7,.54-7.63,2.05-1.1,.86-1.18,4.69-.2,6.2,1.59,2.44,4.3,4.27,6.87,5.81,.37,.22,2.58-2.64,4.51-4.67,.34,1.36,1.78,3.81,1.08,5.01-1.16,2-3.53,4.16-5.7,4.56-5.26,.97-11.13-4.17-11.84-10.55-.4-3.63,.87-7.44,1.39-11.17,.77-5.53,2.31-11.1,2.01-16.57-.15-2.77-3.25-5.85-5.78-7.79-1.19-.92-4.41,.07-6.26,1.04-.96,.51-1.74,3.46-1.15,4.29,1.03,1.47,3.17,2.16,4.82,3.17-2.07,3.01-4.94,3.3-7.8,.25-3.44-3.66-3.72-10.39,.09-14.14,3.66-3.6,4.79-7.53,4.69-12.52-.07-3.54,1.01-7.22,2.13-10.65,1.4-4.29,.96-7.93-2.5-10.87-5.32-4.52-6.66-9.95-4.82-16.62,.57-2.05,.44-4.93-.6-6.69-7.57-12.83-18.93-20.05-33.58-22.12,0,6.13,.21,11.87-.06,17.58-.28,6.16,2.31,11,6.29,15.25,5.33,5.68,9.68,11.67,10.87,19.77,.37,2.52,3.31,4.67,5.1,6.97,1.8,2.31,3.63,4.59,4.45,7.55-1.73-.84-3.46-1.67-5.18-2.51-.83,2.21-2.11,4.36-2.4,6.63-1.34,10.68,1.82,20,8.86,28.15,6.56,7.58,9.48,16.56,10.28,26.53,1.31,16.47,8.62,30.78,18.28,43.62,9,11.96,19.34,22.73,33.27,29.66,6.42,3.19,11.62,8.8,17.41,13.27,5.13,3.95,9.97,8.46,15.6,11.47,2.85,1.52,7.47,1.1,10.78,0,3.71-1.22,4.55-6.24,2.1-8.77-1.63-1.69-3.7-3.28-5.18,.53-.37,.96-2.22,2.33-2.58,2.13-1.28-.75-2.83-1.94-3.16-3.24-.95-3.77,3.13-7.17,7.78-6.8,6.72,.53,11.63,7.52,10.2,14.55-2.28,11.26-14.72,16.59-24.78,11.16-3.44,5.07-6.54,10.31-10.36,14.96-1.91,2.32-4.99,3.85-7.78,5.23-3.33,1.64-6.55,1.24-8.62-2.34-2.02-3.47-1.23-9.01,1.77-10.91,1.08-.69,3.65-1.03,3.98-.53,1.08,1.68,1.44,3.82,2.42,6.82,1.57-1.55,3.83-2.94,4.88-4.96,3.12-6.03,2.34-12.07-1.8-17.34-4.09-5.2-9.6-7.67-16.32-6.47-5.73,1.02-10.2,5.73-9.93,10.85,.1,1.89,1.39,3.9,2.65,5.44,.48,.59,3.32,.34,3.5-.14,.62-1.59,.52-3.46,.82-6.36,1.92,1.11,5.11,2.02,5.21,3.18,.25,3.05-.1,6.64-1.59,9.22-2.19,3.78-5.69,3.91-12.58,1.65,0,1.75,.08,3.33-.01,4.9-.44,7.4-7.73,14.4-15.08,13.77-2.41-.21-5.55-1.97-6.71-3.98-1.29-2.23-.69-5.54,.02-8.64,1.08,4.19,2.22,7.78,7.3,7.84,4.21,.05,8.15-3.27,8.8-8.68,.41-3.46-.88-7.1-1.27-10.67-.56-5.03-1.66-10.11-1.37-15.1,.69-12.07-2.92-22.39-11.49-30.74-5.09-4.96-12.71-5.42-17.47-1.87-4.64,3.46-7.45,13.97-5.14,19.23,1.54,3.51,7.52,5.58,12.27,4.25,4.07-1.14,7.16-5.6,6.13-9.59-.38-1.47-1.92-3.16-3.31-3.64-.84-.29-2.54,1.44-3.62,2.5-.64,.63-.8,1.74-1.39,3.14-2.5-4.37-1.61-7.58,2.06-9.67,3.7-2.11,7.35-.69,8.8,2.87,1.36,3.32,1.22,7.28,1.59,10.98,.14,1.45-.14,2.93-.26,4.78-.45,.34-1.69,.98-2.53,1.95-5.95,6.87-14.28,7.13-20.84,.55-7.28-7.31-8.21-19.17-1.47-28.4,6-8.22,6.23-17.06,3.96-26.18-2.27-9.11-10.36-15.02-19.71-14.4-2.73,.18-6.34,1.95-7.76,4.15-4.55,7.05-1.41,20.07,5.56,24.77,1.98,1.34,4.51,2.22,6.89,2.54,2.87,.39,5.27-1.37,4.53-4.33-.34-1.35-3.23-2.17-5.08-2.97-.57-.25-1.51,.34-2.29,.54-.54-.3-1.08-.61-1.63-.91ZM397.54,92.58l1.31,1.08c1.03-1.14,2.33-2.14,3.04-3.46,4.02-7.42,9.06-14.55,11.6-22.47,5.88-18.28,3.43-35.1-11.94-48.58-2.67-2.34-4.01-2.02-6.51,.08-22.65,19.03-15.98,51.45-.79,68.02-.79-1.76-1.78-3.4-2.67-5.11-4.16-7.99-3.25-11.25,3.69-16.84,2.75-2.21,4.81-1.05,6.56,.56,2.12,1.95,5.6,5.11,5.11,6.72-1.85,6.08-5.05,11.76-7.8,17.57-.41,.87-1.07,1.62-1.62,2.43Zm1.44,113.77c21.7-25.8,24.81-66.49-1-83.42-27.61,21.54-19.3,62.25,1,83.42Zm-24,4.41c-2.43,3.6-6.52,6.99-6.01,9.4,1.73,8.2,5.08,16.05,7.81,24.04l1.79-.28c1.9-3.28,3.86-6.52,5.68-9.84q4.55-8.32-1.75-15.12c-2.24-2.43-4.46-4.87-7.52-8.2Zm42.62-5.82c-3.67,5.08-7.38,10.11-10.95,15.25-.46,.66-.56,2.01-.2,2.71,2.5,4.78,5.18,9.48,8.58,15.61,2.82-7.13,5.23-12.7,7.24-18.42,2.97-8.44,2.65-9.13-4.67-15.16Zm-48.09,71.5c5.74-13.92-2.42-24.51-6.56-35.91-1.29,12.43-1.19,24.59,6.56,35.91Zm60.36-42.98c-4.07,11.37-12.44,21.91-6.6,35.67,7.86-11.09,7.65-23.3,6.6-35.67Z"/><path d="M128.72,131.6c1.45,6.25,2.5,11.82,4.09,17.22,1.16,3.93-.15,6.9-2.57,9.6-11.68,13.1-10.35,47.88,5.33,61.91,5.07,4.54,10.4,7.66,17.37,7.47,2.33-.06,4.66,.15,6.99,.18q17.07,.17,31.19,12.14c-3.74,2.69-7.11,5.57-10.89,7.75-14.69,8.46-26.11,20.5-37.09,33.08-2.83,3.25-5.54,6.7-8.81,9.46-3.97,3.36-9.69,3.33-12.95,.51-3.89-3.37-3.09-7.44-1.27-11.42,2.03-4.44,3.87-9.15,8.98-11.27-.41,4.38-.8,8.51-1.24,13.11,8.3-2.69,16.48-14.33,15.47-21.27-.26-1.81-1.52-3.75-2.88-5.05-3.23-3.1-6.88-5.78-10.22-8.78-23.63-21.22-34.91-47.11-28.74-79.03,3.11-16.08,14.22-26.52,27.23-35.61Z"/><path d="M493.48,198.03c-4.99,3.23-9.72,6.33-14.47,9.37-2.6,1.66-4.64,1.49-5.85-1.78-13.77-37.45-13.36-73.74,9.3-107.96,5.91-8.92,14.4-15.13,24.17-19.59,3.45-1.58,5.93-1.31,7.84,2.32,2.63,5.01,5.52,9.88,8.3,14.82,2.14,3.82,1.57,6.55-1.86,9.89-8.08,7.87-16.12,15.96-22.97,24.88-12.25,15.95-13.68,49.52-4.46,68.05Z"/><path d="M299.21,205.06c6.69-13.41,6.48-27.36,5.16-41.37-1.51-16-9.27-28.99-20.35-40.18-4.22-4.26-8.58-8.4-13.14-12.27-2.49-2.11-3.06-4.3-1.65-6.96,3.28-6.17,6.49-12.4,10.27-18.25,.74-1.15,4.28-1.55,5.95-.87,13.88,5.61,24.07,15.59,30.71,28.75,16.29,32.27,16.14,65.32,3.56,98.73-1.2,3.19-3.14,3.54-5.85,2.04-.29-.16-.55-.38-.83-.56-4.45-2.91-8.9-5.82-13.85-9.05Z"/><path d="M277.54,31.02c-6.86,8.57-12.88,16.25-19.11,23.75-1.16,1.4-3.05,2.33-4.77,3.08-7.4,3.21-14.86,6.26-22.31,9.38l.38,1.39c4.19,1.58,8.39,3.15,12.01,4.51-3.95,8.52-7.62,16.44-11.38,24.55-3.01-1.3-6.4-3.05-9.97-4.23-6.68-2.21-10.01-.52-12.37,6.08-1.68,4.7-3.34,9.42-4.62,14.23-.97,3.65-2.89,4.84-6.52,4.18-4.26-.77-8.55-1.48-12.86-1.77-3.71-.25-4.37-1.91-3.76-5.21,4.4-23.83,14.7-44.13,34.98-58.38,12.22-8.59,25.65-14.94,40-18.92,6.43-1.78,13.35-1.79,20.3-2.63Z"/><path d="M560.33,90.5c-3.68-7.99-7.34-15.92-11.3-24.5,3.52-1.31,7.63-2.85,13.01-4.86-4.61-2.38-8.37-5.18-12.57-6.31-10.12-2.73-17.33-8.53-22.9-17.32-2.94-4.65-7.48-8.28-11.42-12.5,4.74,0,9.73-.95,14.21,.16,24.53,6.03,46.91,16.21,63.19,36.47,9.68,12.04,14.85,26.21,17.86,41.27,.85,4.24-.26,6.13-4.84,6.29-4.13,.14-8.24,1.06-12.35,1.72-2.94,.48-4.67-.53-5.56-3.5-1.57-5.26-3.3-10.47-5.16-15.63-2.05-5.69-5.01-7.41-10.79-5.79-3.96,1.11-7.69,3.02-11.38,4.51Z"/><path d="M648.58,176.04c-5.1-2.11-9.91-3.78-14.34-6.15-1.24-.66-1.83-3.37-1.95-5.19-.66-9.79-1.26-19.6-1.52-29.41-.38-14.55-6.55-26.79-13.85-38.95-5.47-9.11-9.46-19.12-13.55-29.12,21.28,6.17,37.83,18.33,47.99,37.75,12.32,23.54,5.81,46.85-2.76,71.06Z"/><path d="M144.55,182.68c-22.62-51.3-4.78-91.42,44.2-108.74,.19,.23,.58,.57,.53,.69-5.04,10.41-7.57,21.88-14.73,31.46-9.03,12.08-12.7,26.21-13.03,41.25-.17,7.83-.9,15.65-.84,23.47,.03,4.36-1.52,6.94-5.54,8.27-3.57,1.18-7.11,2.42-10.59,3.61Z"/><path d="M295.72,60.86c5.13-7.51,11.59-12.29,19.43-15.18,1.35-.5,3.19-.3,4.61,.16,1.7,.56,3.35,1.55,4.75,2.69,21.62,17.64,40.44,37.51,51.35,63.83,1.7,4.11,1.54,7.67-.39,11.37-2.74,5.25-5.56,10.46-8.62,16.19-.97-3.12-1.76-5.9-2.7-8.62-6.25-18.01-17.31-32.4-32.61-43.67-11.9-8.77-23.68-17.69-35.81-26.76Z"/><path d="M549.51,830.37c-7.57,3.08-13.66,1.25-19.15-3.29-3.33-2.76-6.23-6.09-9.76-8.53-2.1-1.45-5.05-1.67-7.61-2.44-.3,.49-.59,.99-.89,1.48,2.04,7.12,4.09,14.25,6.3,21.97-3.09,.94-6.02,1.84-9.62,2.94-7.09-23.87-14.07-47.38-21.03-70.82,12.8-8.43,29.48-8.94,39.12-1.35,12.08,9.52,13.4,26.67,2.9,37.96-.56,.6-1.12,1.21-1.66,1.8,6.59,8.97,11.53,11.98,18.8,11.15,.82,2.89,1.66,5.86,2.59,9.14Zm-40.66-23.48c9.57-1.01,15.34-5.3,17.21-12.48,1.55-5.96-.9-12.54-6.06-16.28-5.64-4.09-12.93-3.97-19.59,.42,2.81,9.43,5.64,18.93,8.44,28.33Z"/><path d="M341.37,829.2h9.59c.19,2.05,.27,3.83,.52,5.59,1.36,9.56,11.03,14.49,19.58,10,6.2-3.25,7.11-10.42,1.56-14.65-3.55-2.71-7.64-4.69-11.47-7.04-3.82-2.35-7.86-4.43-11.37-7.19-8.41-6.61-9.63-17.17-3.32-25.76,5.74-7.82,18.23-10.88,27.58-6.78,9.62,4.23,15.31,15.25,13.05,25.52h-9.04c-.19-2.06-.28-3.84-.54-5.6-1.32-8.85-9.37-13.69-17.77-10.71-3.73,1.33-6.83,3.83-6.6,7.83,.16,2.74,1.75,6.13,3.84,7.85,3.8,3.13,8.5,5.16,12.74,7.79,3.52,2.19,7.22,4.25,10.31,6.97,9.2,8.08,8.51,21.77-1.49,28.88-7.98,5.68-16.76,6.7-25.39,1.76-9.14-5.24-12.66-13.65-11.76-24.47Z"/><path d="M434.98,822.23c9.35-1.07,18.05-2.07,27.18-3.12,.46,3.26,.86,6.17,1.38,9.84-9.03,1.16-17.83,2.3-27.21,3.51,.41,3.83,.8,7.39,1.27,11.81,8.96-.99,17.79-1.96,27.25-3.01,.41,3.22,.8,6.24,1.27,9.92-12.53,1.52-24.66,2.99-37.34,4.53-2.99-24.96-5.93-49.48-8.91-74.43,12.72-1.54,24.72-2.99,37.17-4.49,.47,3.42,.88,6.46,1.35,9.95-9.11,1.16-17.8,2.27-27.21,3.46,1.25,10.6,2.48,20.92,3.79,32.02Z"/><path d="M698,198.47c17.75,8.98,34.23,18.96,38.86,40.15,3.8,17.4-8.8,32.92-26.62,33.5-14.76,.48-28.46-18.96-23.05-32.69,3.93-9.98,16.87-12.65,24.78-4.65,3.11,3.14,4.89,7.58,7.28,11.43l-1.18,.79c-2.78-2.57-5.2-5.81-8.44-7.5-2.92-1.53-7.29-2.71-10.02-1.6-3.95,1.61-4.32,6.26-3.51,10.48,1.35,6.97,5.24,11.9,12.02,14.04,7.1,2.24,13.58,.54,18.89-4.64,5.24-5.11,4.88-11.38,2.69-17.66-3.45-9.94-10.78-16.17-20.16-20.26-3.51-1.53-7.2-2.65-10.62-4.33-5.56-2.73-6.38-5.68-3.62-11.3,.87-1.77,1.68-3.56,2.7-5.75Z"/><path d="M94.44,204.64c1.13,2.64,1.61,3.86,2.17,5.05,3.87,8.26,2.76,10.49-5.66,14.34-6.6,3.02-13.26,6.22-19.14,10.41-5.67,4.04-8.84,10.28-9.87,17.37-1.03,7.14,1.36,12.58,7.57,15.98,6.64,3.63,13.44,3.83,19.84-.59,5.84-4.03,8.73-11.41,7.2-17.44-1.33-5.21-4.98-7.5-9.71-5.06-4.44,2.29-8.28,5.75-11.9,8.34,.01-8.33,8.77-16.38,18.19-15.65,9.09,.7,14.97,8.78,13.54,18.58-2.07,14.18-15.23,25.02-27.76,22.88-16.3-2.78-26.18-16.76-23.19-32.79,1.92-10.3,7.37-18.69,15.26-25.13,7.16-5.84,15.18-10.61,23.46-16.29Z"/><path d="M493.08,150.66c1.45-4.34,2.5-8.18,4.06-11.81,.52-1.22,2.21-2.21,3.58-2.74,10.37-4,20.8-7.85,31.34-11.8,3.27,4.87,2.04,12.33-3.53,15.87-4.19,2.67-9.19,4.13-13.16,7.05-3.87,2.84-8.01,6.29-10.04,10.45-3.6,7.38,.93,13.23,9.18,13.2,1.95,0,3.9-.32,5.89-.5-.75,7.98-6.01,11.15-18.22,10.71,1.08,2.07,1.98,3.8,2.89,5.55-6.27,1.15-10.8-1.16-11.75-6.7-1.37-7.99-1.06-16.02,3-23.3,2.05-3.66,3.36-6.25-3.23-5.99Z"/><path d="M299.45,157.41l-3.94,1.16c1.54,7.06,3.14,13.7,4.38,20.4,.41,2.23,.17,4.66-.19,6.94-.98,6.21-4.8,8.74-12.25,8.09,1.08-1.87,2.08-3.61,3.22-5.58-13.11-.37-16.32-2.18-18.68-10.43,2.46,0,4.86,.1,7.26-.02,7.19-.34,10.78-5.4,8.76-12.32-1.61-5.52-5.63-8.9-10.5-11.41-3.69-1.9-7.55-3.49-11.18-5.5-7.11-3.93-8.93-9.69-6-17.33,11.01,4.03,22.03,7.98,32.97,12.17,1.25,.48,2.35,2.17,2.89,3.55,1.25,3.22,2.12,6.6,3.26,10.28Z"/><path d="M195.37,791.28c-2.87,6.82-5.75,13.68-8.84,21.03-1.74-.69-3.32-1.32-5.22-2.08,8.95-21.77,17.72-43.11,26.82-65.24,6.35,2.95,12.71,5.15,18.24,8.65,8.5,5.38,11.76,16.28,8.79,26.05-2.81,9.25-11.22,15.76-21.14,16.34-.97,.06-1.95,0-3.75,0,2.34,8.5,.05,17.79,8.17,24.19-.64,1.42-1.28,2.88-2.03,4.55-5.22-1.78-7.7-5.6-8.84-10.24-1.03-4.18-1.54-8.5-2.16-12.78-.83-5.7-3.68-9.44-10.05-10.49Zm2.33-5.86c8.56,4.44,16.71,7.66,25.22,1.49,5.88-4.27,8.46-10.26,7.09-17.46-1.94-10.22-9.88-13.75-19.03-16.37-4.41,10.74-8.75,21.31-13.28,32.34Z"/><path d="M765.72,680.13c-7.99-11.1-15.57-21.61-23.13-32.14-5.73-7.98-11.41-15.99-17.17-23.95-1.41-1.95-2.65-3.51-.69-6.1,1.89-2.51,3.65-1.54,5.64-.78,21.3,8.1,42.59,16.21,64.13,24.41-1.12,3.81-2.85,5.4-6.85,3.63-4.71-2.08-9.67-3.6-14.42-5.62-2.43-1.03-3.91-.67-5.45,1.5-3.09,4.34-6.31,8.6-9.75,12.67-1.91,2.27-1.55,3.89,.1,6.06,3.81,5.03,7.38,10.24,11.16,15.53-1.1,1.47-2.07,2.78-3.58,4.8Zm-31.18-55.31c-.2,.33-.4,.65-.6,.98,6.08,8.43,12.15,16.86,18.6,25.79,4.09-5.33,7.76-10.09,11.79-15.34-10.42-4-20.1-7.71-29.79-11.43Z"/><path d="M56.63,728.2c20.08-13.63,40.04-27.17,59.83-40.6,4.34,1.73,5.01,3.95,3.22,8.18-8.75,20.67-17.1,41.51-25.69,62.53-3.79-1.28-5.49-2.87-3.51-6.92,2.33-4.78,4.27-9.77,5.99-14.8,.43-1.26-.1-3.59-1.07-4.46-4.18-3.81-8.56-7.43-13.16-10.71-1.15-.82-3.76-.78-5.05-.03-4.3,2.51-8.44,5.36-12.4,8.39-3.1,2.37-5.56,2.61-8.17-1.58Zm55.6-29.35l-.71-.81c-8.68,5.92-17.37,11.84-26.52,18.07,5.25,4.24,9.94,8.04,15.05,12.17,4.23-10.23,8.21-19.83,12.18-29.43Z"/><path d="M277.63,770.4c10.93,2.45,21.27,4.76,32.04,7.17-.27,1.87-.5,3.43-.81,5.52-9.09-1.96-17.79-3.84-26.92-5.81-2.69,11.99-5.29,23.59-8.01,35.77,9.08,2.11,17.73,4.12,26.65,6.19-.42,1.87-.74,3.3-1.2,5.35-8.87-1.93-17.54-3.82-26.63-5.79-1.25,5.35-2.41,10.32-3.73,15.95,8.9,2.07,17.54,4.07,26.6,6.17-.38,1.84-.7,3.37-1.13,5.44-10.88-2.43-21.33-4.77-32.24-7.21,5.14-22.98,10.18-45.47,15.4-68.76Z"/><path d="M165.69,137.86c.95-4.69,1.42-9.44,3.05-13.74,.58-1.54,3.98-2.85,6.08-2.83,11.82,.14,23.63,.68,35.45,1.16,4.95,.2,9.89,.61,16.01,1-1.98,4.79-3.49,8.92-5.45,12.82-.44,.87-2.55,1.51-3.73,1.31-16.26-2.66-32.46-2.94-48.62,.66-.44,.1-.95-.12-2.78-.39Z"/><path d="M605.62,803.67c-16.39-17.43-32.91-34.99-49.82-52.97,1.9-1.08,3.38-1.93,5.11-2.92,14.07,14.87,27.95,29.54,41.84,44.22,.36-.18,.72-.36,1.07-.54-1.62-9.6-3.23-19.2-4.86-28.79-1.53-9.02-2.93-18.07-4.72-27.05-.71-3.57,.23-5.39,4.36-6.03,.51,2.24,1.14,4.55,1.55,6.9,3.47,20.01,6.75,40.04,10.44,60.01,.83,4.49-.34,6.54-4.96,7.17Z"/><path d="M665.26,689.32c-1.39-1.48-2.49-2.65-3.86-4.11,11.67-11.02,23.14-21.84,34.91-32.94,1.36,1.26,2.52,2.32,4.17,3.84-5.26,5.01-10.24,9.75-15.54,14.8,14.81,15.77,29.34,31.24,44.48,47.36-1.46,1.37-2.63,2.45-4.14,3.87-15.03-15.95-29.6-31.42-44.5-47.24-5.12,4.76-10.07,9.37-15.51,14.43Z"/><path d="M455.91,150.08c-6.09-9.78-11.56-18.49-16.92-27.27-.54-.89-.92-2.42-.52-3.26,2.3-4.91,4.85-9.71,7.88-15.66,5.69,6.71,10.74,12.58,15.66,18.56,.49,.6,.42,1.91,.2,2.79-1.95,7.91-3.99,15.8-6.3,24.82Z"/><path d="M346.36,111.11c2.98,5.66,5.46,10.14,7.66,14.76,.48,1.01,.41,2.76-.17,3.72-5.37,8.95-10.9,17.8-16.97,27.61-2.36-9.19-4.49-17.3-6.44-25.45-.22-.92,.31-2.33,.96-3.11,4.67-5.61,9.46-11.12,14.96-17.53Z"/><path d="M8.13,669.46c5.9,6.95,11.59,13.65,17.83,21-1.32,1.15-2.52,2.18-4.26,3.69-7.23-8.43-14.23-16.59-21.7-25.29,17.79-15.29,35.4-30.41,53.28-45.78,1.33,1.55,2.37,2.76,3.72,4.32-16.37,14.09-32.49,27.96-48.87,42.06Z"/><path d="M183.48,190.21c-18.67-.13-36.44,2.6-53.28,12.21-1.21-4.07-2.22-7.45-3.4-11.42,7.01-1.82,13.38-3.51,19.77-5.13,7.9-2,15.8-3.99,23.72-5.9,9.83-2.37,11.24-1.37,13.18,10.24Z"/><path d="M628.42,709.69c1.85-1.26,3.07-2.08,4.7-3.19,13.35,19.07,26.58,37.97,40.11,57.3-1.53,1.11-2.93,2.12-4.64,3.35-13.42-19.2-26.64-38.1-40.17-57.46Z"/><path d="M717.55,382.58c14.31-8.86,16.22-13.51,9-21.94,5.34,.89,7.35,3.43,6.87,8.71-.68,7.48-8.08,13.65-15.87,13.23Z"/><path d="M76.16,389.84c-9.13-.04-16.24-6.15-16.85-13.54-.42-5.03,1.38-7.51,5.92-8.19-5.34,6.84-4.21,15.84,10.93,21.73Z"/><path d="M646.85,477.59c-2.33-1-4.66-2.01-6.98-3.01l-.33-1.48c1.48-.79,3.62-2.62,4.32-2.17,1.87,1.17,3.11,3.33,4.61,5.09-.54,.52-1.07,1.04-1.61,1.57Z"/><path d="M144.16,482.93c1.74-1.71,3.37-3.57,5.32-4.98,.31-.22,2.07,1.56,3.16,2.41-2.18,1.63-4.36,3.26-6.53,4.89l-1.95-2.32Z"/><path d="M411.56,150.5c1.34,9.41,5.29,19.61-6.15,26.31,4.74,6.88,4.81,9.21,.21,15.01-3.5-4.52-7.72-6.01-12.68-2.19-.49,.38-1.7,.29-2.3-.05-2.77-1.58-4.29-9.82-3.45-12.96,.58-2.16,.16-5.21-1.03-7.11-4.77-7.65-2.75-14.8-.02-21.6,2.82,4.31,5.46,8.63,8.41,12.73,1.69,2.35,3.65,2.12,5.8-.01,3.52-3.49,7.36-6.68,11.2-10.12Z"/></g></g></svg>